<svg xmlns="http://www.w3.org/2000/svg" width="43.615" height="50.824" viewBox="0 0 43.615 50.824">
  <g id="_13d" data-name="13d" transform="translate(-257.811 -228.262)">
    <g id="Group_18" data-name="Group 18">
      <path id="Path_58" data-name="Path 58" d="M269.578,270.223a1.333,1.333,0,1,0,1.332,1.332A1.333,1.333,0,0,0,269.578,270.223Z" fill="#fff"/>
      <path id="Path_59" data-name="Path 59" d="M279.578,270.223a1.333,1.333,0,1,0,1.332,1.332A1.333,1.333,0,0,0,279.578,270.223Z" fill="#fff"/>
      <circle id="Ellipse_5" data-name="Ellipse 5" cx="1.5" cy="1.5" r="1.5" transform="translate(288.078 270.055)" fill="#fff"/>
      <circle id="Ellipse_6" data-name="Ellipse 6" cx="1.375" cy="1.375" r="1.375" transform="translate(283.203 276.211)" fill="#fff"/>
      <circle id="Ellipse_7" data-name="Ellipse 7" cx="1.5" cy="1.5" r="1.5" transform="translate(273.078 276.086)" fill="#fff"/>
    </g>
    <g id="Group_19" data-name="Group 19">
      <path id="Path_60" data-name="Path 60" d="M285.669,236.063a8.455,8.455,0,0,0-7.822,4.3l1.748.97a6.441,6.441,0,0,1,5.959-3.277,6.387,6.387,0,0,1,6.006,6.746,6.433,6.433,0,0,1-.337,1.717l1.89.652a8.389,8.389,0,0,0-7.444-11.111Z" fill="#fff"/>
      <path id="Path_61" data-name="Path 61" d="M300.413,244.317l-3.3-.191a1.012,1.012,0,0,0-1.056.939,1,1,0,0,0,.941,1.057l3.3.191.058,0a1,1,0,0,0,.057-2Z" fill="#fff"/>
      <path id="Path_62" data-name="Path 62" d="M299.212,238.506a1,1,0,1,0-.9-1.787l-2.951,1.481a1,1,0,1,0,.9,1.787Z" fill="#fff"/>
      <path id="Path_63" data-name="Path 63" d="M294.083,230.9a1,1,0,0,0-1.386.285l-1.813,2.758a1,1,0,1,0,1.672,1.1l1.813-2.758A1,1,0,0,0,294.083,230.9Z" fill="#fff"/>
      <path id="Path_64" data-name="Path 64" d="M285.815,233.557l.059,0a1,1,0,0,0,1-.943l.191-3.3a1,1,0,0,0-2-.115l-.191,3.3A1,1,0,0,0,285.815,233.557Z" fill="#fff"/>
      <path id="Path_65" data-name="Path 65" d="M279.843,234.8a1,1,0,0,0,.892-1.449l-1.482-2.951a1,1,0,1,0-1.787.9l1.482,2.951A1,1,0,0,0,279.843,234.8Z" fill="#fff"/>
      <path id="Path_66" data-name="Path 66" d="M275.792,237.063l-2.759-1.812a1,1,0,1,0-1.1,1.671l2.759,1.813a1,1,0,1,0,1.1-1.672Z" fill="#fff"/>
    </g>
    <path id="Path_67" data-name="Path 67" d="M291.423,265.819H264.814a7,7,0,0,1-.061-14,13,13,0,0,1,24.122-5.666,9.878,9.878,0,0,1,2.548-.336,10,10,0,0,1,0,20.006Z" fill="#fff"/>
  </g>
</svg>
