<svg xmlns="http://www.w3.org/2000/svg" width="43.614" height="50.845" viewBox="0 0 43.614 50.845">
  <g id="_13n" data-name="13n" transform="translate(-317.754 -228.241)">
    <g id="Group_21" data-name="Group 21">
      <circle id="Ellipse_8" data-name="Ellipse 8" cx="1.5" cy="1.5" r="1.5" transform="translate(328.061 270.055)" fill="#fff"/>
      <circle id="Ellipse_9" data-name="Ellipse 9" cx="1.5" cy="1.5" r="1.5" transform="translate(338.061 270.055)" fill="#fff"/>
      <circle id="Ellipse_10" data-name="Ellipse 10" cx="1.5" cy="1.5" r="1.5" transform="translate(348.061 270.055)" fill="#fff"/>
      <circle id="Ellipse_11" data-name="Ellipse 11" cx="1.5" cy="1.5" r="1.5" transform="translate(343.061 276.086)" fill="#fff"/>
      <circle id="Ellipse_12" data-name="Ellipse 12" cx="1.5" cy="1.5" r="1.5" transform="translate(333.061 276.086)" fill="#fff"/>
    </g>
    <path id="Path_68" data-name="Path 68" d="M356.963,249.167l-1.158-1.631a9.974,9.974,0,0,0,2.793-3.045,11.647,11.647,0,0,1-1.708.127,11.855,11.855,0,0,1-11.842-11.84,11.69,11.69,0,0,1,.137-1.781,9.833,9.833,0,0,0-4.9,8.505,10.117,10.117,0,0,0,.086,1.315l-1.982.262a12.014,12.014,0,0,1-.1-1.577,11.831,11.831,0,0,1,8.042-11.208,1,1,0,0,1,1.267,1.273,9.821,9.821,0,0,0,12.452,12.523,1,1,0,0,1,1.266,1.274A11.821,11.821,0,0,1,356.963,249.167Z" fill="#fff"/>
    <path id="Path_69" data-name="Path 69" d="M351.365,265.831H324.757a7,7,0,0,1-.062-14,13,13,0,0,1,24.122-5.666,9.885,9.885,0,0,1,2.548-.336,10,10,0,1,1,0,20.006Z" fill="#fff"/>
  </g>
</svg>
