<?xml version="1.0" standalone="no"?>
<!DOCTYPE svg PUBLIC "-//W3C//DTD SVG 20010904//EN"
 "http://www.w3.org/TR/2001/REC-SVG-20010904/DTD/svg10.dtd">
<svg version="1.0" xmlns="http://www.w3.org/2000/svg"
 width="512.000000pt" height="512.000000pt" viewBox="0 0 512.000000 512.000000"
 preserveAspectRatio="xMidYMid meet">
<metadata>
Created by potrace 1.11, written by Peter Selinger 2001-2013
</metadata>
<g transform="translate(0.000000,512.000000) scale(0.100000,-0.100000)"
fill="#000000" stroke="none">
<path d="M3153 4741 c-39 -25 -44 -46 -59 -296 -3 -49 -6 -102 -8 -117 -10
-88 99 -151 168 -97 49 39 54 65 72 350 7 108 0 129 -49 159 -41 25 -83 25
-124 1z"/>
<path d="M2366 4573 c-31 -30 -41 -62 -32 -99 16 -62 150 -336 172 -351 40
-26 96 -34 121 -17 33 21 55 70 48 104 -13 61 -147 335 -176 363 -40 37 -96
37 -133 0z"/>
<path d="M3925 4485 c-23 -11 -56 -58 -129 -180 -83 -138 -97 -169 -91 -192
10 -41 32 -71 65 -88 28 -14 34 -14 63 0 18 8 38 23 45 33 7 9 58 82 114 162
89 126 102 149 101 183 -2 76 -93 121 -168 82z"/>
<path d="M1763 4041 c-30 -19 -39 -34 -48 -82 -8 -38 25 -74 122 -135 51 -32
124 -78 161 -101 55 -36 75 -43 112 -41 60 2 87 15 98 47 19 54 -2 101 -61
135 -20 11 -95 58 -166 104 -71 45 -142 84 -157 87 -19 4 -40 -1 -61 -14z"/>
<path d="M2950 3940 c-114 -24 -181 -51 -281 -111 -77 -46 -184 -143 -249
-225 -25 -32 -25 -32 -143 -38 -66 -3 -122 -8 -126 -11 -4 -2 -21 -7 -37 -10
-16 -2 -41 -7 -57 -10 -119 -23 -334 -117 -451 -198 -197 -137 -364 -336 -460
-553 -45 -101 -91 -265 -102 -364 -4 -30 -8 -58 -10 -61 -1 -3 -23 -6 -49 -8
-116 -6 -267 -63 -370 -141 -103 -78 -158 -143 -214 -250 -56 -108 -74 -178
-76 -300 -3 -140 15 -223 75 -345 85 -173 225 -296 407 -360 39 -13 99 -27
134 -31 85 -9 2866 -9 2949 0 450 50 824 408 897 861 11 66 8 244 -5 320 -16
97 -62 236 -104 313 -140 258 -399 460 -665 517 -32 6 -33 7 -26 48 17 96 6
248 -26 360 -105 365 -419 601 -816 612 -79 3 -134 -1 -195 -15z"/>
<path d="M4470 3903 c-45 -18 -326 -177 -337 -191 -32 -43 -2 -135 52 -158 31
-13 37 -11 126 33 52 25 135 63 184 85 106 46 114 53 121 100 14 86 -69 161
-146 131z"/>
<path d="M4300 3119 c-26 -10 -58 -54 -54 -76 1 -7 2 -22 3 -32 0 -11 11 -31
24 -46 25 -29 26 -29 338 -51 84 -5 101 -4 128 12 53 31 73 101 39 141 -19 23
-45 30 -138 38 -47 3 -101 8 -120 10 -95 11 -198 12 -220 4z"/>
</g>
</svg>
