<?xml version="1.0" standalone="no"?>
<!DOCTYPE svg PUBLIC "-//W3C//DTD SVG 20010904//EN"
 "http://www.w3.org/TR/2001/REC-SVG-20010904/DTD/svg10.dtd">
<svg version="1.0" xmlns="http://www.w3.org/2000/svg"
 width="260.000000pt" height="260.000000pt" viewBox="0 0 260.000000 260.000000"
 preserveAspectRatio="xMidYMid meet">
<metadata>
Created by potrace 1.11, written by Peter Selinger 2001-2013
</metadata>
<g transform="translate(0.000000,260.000000) scale(0.100000,-0.100000)"
fill="#000000" stroke="none">
<path d="M1491 2006 c-6 -7 -14 -47 -17 -89 -5 -69 -4 -76 15 -86 28 -15 39
-14 50 7 16 29 23 139 11 162 -12 23 -42 26 -59 6z"/>
<path d="M1213 1953 c-20 -7 -16 -39 13 -101 27 -60 38 -72 66 -72 31 0 32 43
3 106 -33 71 -46 82 -82 67z"/>
<path d="M1767 1919 c-9 -6 -17 -14 -17 -19 0 -5 -13 -30 -29 -55 -29 -46 -31
-79 -5 -89 23 -9 37 2 78 62 35 49 47 85 33 98 -10 10 -44 11 -60 3z"/>
<path d="M998 1763 c-9 -2 -18 -10 -21 -16 -6 -17 10 -57 23 -57 6 0 31 -13
55 -30 46 -31 74 -37 92 -19 19 19 3 44 -45 74 -72 46 -86 52 -104 48z"/>
<path d="M1393 1716 c-56 -18 -105 -50 -142 -91 -23 -27 -38 -35 -64 -35 -18
0 -59 -7 -91 -15 -184 -48 -322 -190 -357 -366 -8 -42 -16 -59 -28 -60 -80 -4
-174 -67 -213 -143 -14 -27 -23 -64 -24 -107 -5 -111 54 -204 159 -248 46 -20
66 -21 595 -20 524 0 549 1 607 20 94 32 170 97 213 180 42 82 51 190 23 279
-36 113 -114 195 -227 238 -48 17 -49 18 -46 60 5 58 -24 149 -61 199 -36 46
-101 92 -156 109 -52 15 -140 15 -188 0z"/>
<path d="M1910 1678 c-63 -36 -69 -43 -62 -70 8 -32 25 -31 100 3 71 33 87 52
70 83 -13 24 -46 19 -108 -16z"/>
<path d="M1896 1412 c-9 -28 3 -52 28 -52 11 0 44 -3 72 -6 58 -7 94 7 94 35
0 24 -13 29 -109 37 -73 5 -80 4 -85 -14z"/>
</g>
</svg>
